<svg width="208" height="253" viewBox="0 0 208 253" fill="none" xmlns="http://www.w3.org/2000/svg">
<path d="M148.55 242.252C155.34 241.28 159.63 241.172 159.826 242.144C160.023 243.116 156.098 244.977 149.585 247.228C146.328 248.33 142.502 249.545 138.056 250.779C136.945 251.075 135.905 251.393 134.58 251.72C133.017 252.089 131.397 252.139 129.815 251.867C128.738 251.699 127.71 251.306 126.796 250.713C125.882 250.121 125.103 249.343 124.51 248.429C123.446 246.679 122.851 244.686 122.782 242.639C122.713 241.045 122.776 239.448 122.969 237.864C123.117 236.476 123.313 235.111 123.486 233.746C123.881 231.063 124.326 228.474 124.823 226.05C125.756 221.797 126.941 217.604 128.372 213.492C130.826 206.429 133.184 202.469 134.005 202.802C134.826 203.134 134.156 207.71 132.871 214.761C132.266 218.357 131.538 222.6 130.873 227.342C130.565 229.737 130.233 232.132 129.957 234.787C129.627 237.268 129.449 239.766 129.424 242.268L129.432 242.53C131.546 239.372 133.842 236.339 136.307 233.447C141.654 226.629 150.761 215.665 164.073 196.44C170.621 186.818 178.39 175.013 186.433 160.481C190.736 152.673 194.192 144.428 196.742 135.887C199.757 126.269 200.109 116.014 197.762 106.212C194.73 95.5643 187.929 86.3821 178.628 80.3772C169.906 74.6076 159.951 70.9682 149.564 69.7524C148.444 81.16 145.391 92.2939 140.537 102.678C134.096 116.607 124.101 128.594 111.557 137.433C105.145 141.692 97.8148 144.369 90.1674 145.245C86.2523 145.71 82.2852 145.46 78.4592 144.509C74.3719 143.514 70.5973 141.515 67.4772 138.694C64.2635 135.595 61.8307 131.779 60.3784 127.557C58.9261 123.336 58.4959 118.831 59.123 114.411C60.4149 106.238 63.7921 98.5367 68.9284 92.0499C71.2555 88.9447 73.8742 86.0692 76.7488 83.4626C78.1633 82.1552 79.6775 80.9878 81.1917 79.8203C82.7059 78.6529 84.2029 77.7007 85.8645 76.6718C91.9245 72.7577 98.3784 69.4899 105.12 66.922C117.584 62.2183 130.874 60.0976 144.182 60.6888C144.161 59.9978 144.14 59.3069 144.119 58.6398C143.98 44.8122 140.719 31.0568 133.607 20.8063C130.308 15.834 125.802 11.7797 120.51 9.02275C115.482 6.51043 109.974 5.10237 104.357 4.89299C93.7295 4.67595 83.1475 6.34166 73.1006 9.81302C64.1132 12.5802 55.3534 16.0388 46.8998 20.158C34.5203 26.224 22.8195 33.5866 11.994 42.1223C4.28807 48.2259 0.374395 52.0188 0.0544058 51.6948C-0.265583 51.3708 0.853161 50.5255 2.67822 48.6093C3.55501 47.6522 4.73638 46.5189 6.12634 45.1884C7.5163 43.8578 9.11558 42.3539 10.9971 40.7221C28.7996 25.1623 49.5082 13.2833 71.927 5.77109C82.3415 1.91542 93.3637 -0.0390534 104.469 0.000707378C110.697 0.11824 116.829 1.55528 122.461 4.21699C128.542 7.26579 133.758 11.7966 137.628 17.3916C145.779 28.8741 149.407 43.7152 149.793 58.5845C149.82 59.4422 149.846 60.2999 149.872 61.1576C161.623 62.43 172.9 66.4901 182.765 73.0001C188.222 76.6386 193.022 81.1759 196.962 86.4192C200.873 91.6375 203.75 97.5552 205.44 103.854C207.011 109.805 207.611 115.971 207.217 122.114C206.878 127.686 205.92 133.202 204.361 138.562C201.618 147.731 197.892 156.577 193.248 164.946C186.148 177.515 178.378 189.695 169.974 201.433C160.98 214.221 151.115 226.374 140.448 237.803C138.073 240.345 135.568 242.762 132.944 245.045C134.087 245.01 135.315 244.615 136.667 244.359C141.099 243.483 145.108 242.787 148.527 242.301L148.55 242.252ZM107.609 74.9776C101.349 77.3195 95.3504 80.3095 89.7116 83.8987C88.3092 84.8242 86.8599 85.7749 85.5073 86.7705C84.1653 87.7424 82.8759 88.7851 81.6446 89.8941C79.1034 92.121 76.7833 94.5883 74.7168 97.2616C70.4337 102.557 67.5738 108.859 66.4084 115.57C65.9763 118.763 66.2554 122.012 67.2256 125.084C68.1461 128.064 69.8323 130.75 72.1156 132.875C74.5047 134.883 77.2922 136.363 80.2944 137.216C83.2966 138.069 86.4456 138.276 89.5338 137.824C96.1488 137.085 102.503 134.824 108.099 131.22C119.675 123.193 128.95 112.277 135.004 99.5571C139.554 90.0326 142.465 79.8085 143.613 69.3154C131.315 68.7536 119.03 70.6723 107.49 74.9574L107.609 74.9776ZM130.192 244.748C130.192 244.748 130.192 244.748 130.049 244.753C130.103 244.819 130.169 244.874 130.245 244.914" fill="#CD1D1D"/>
</svg>
