<svg width="207" height="191" viewBox="0 0 207 191" fill="none" xmlns="http://www.w3.org/2000/svg">
<path d="M91.266 92.7335C93.8567 97.7164 97.2057 102.267 101.193 106.222C105.218 110.096 109.762 113.392 114.695 116.015C119.472 118.659 124.55 120.717 129.819 122.146C135.079 123.598 140.553 124.114 145.991 123.67C148.732 123.434 151.425 122.803 153.985 121.797C156.659 120.786 159.077 119.198 161.069 117.147C163.266 114.833 164.626 111.85 164.932 108.674C165.16 105.416 164.461 102.161 162.914 99.2842C162.223 97.9261 161.422 96.6269 160.519 95.3996C159.618 94.2536 158.658 93.1556 157.643 92.11C156.669 91.1019 155.631 90.1582 154.534 89.285L152.88 87.8807L151.226 86.6878C146.959 83.7269 142.416 81.1878 137.658 79.1063C133.024 77.0023 128.116 75.5652 123.079 74.8377C118.301 74.152 113.449 74.163 108.675 74.8705L106.949 75.1027L105.26 75.4914C104.152 75.7379 102.996 75.9928 101.93 76.2605C99.7786 76.8495 97.6594 77.5495 95.5806 78.3579C94.3782 78.8325 93.1968 79.3706 92.0154 79.9087C91.6845 78.7575 91.4633 77.6827 91.1452 76.4427C90.1563 71.8313 89.7921 67.1077 90.0626 62.3992C90.3792 57.895 91.3809 53.4654 93.0332 49.2633C96.4352 41.3339 101.59 34.2788 108.111 28.6281C114.225 23.3376 121.046 18.9251 128.378 15.5179C135.082 12.3748 142.029 9.77859 149.152 7.75459C155.376 5.91326 161.717 4.48936 168.131 3.49239C177.527 1.98194 187.107 2.01933 196.491 3.60311C203.212 4.86892 206.887 6.40135 206.9 5.9954C206.139 5.41223 205.286 4.96104 204.375 4.66063C201.884 3.61372 199.316 2.75986 196.694 2.10657C187.204 -0.0854427 177.401 -0.571715 167.741 0.670513C161.143 1.44905 154.607 2.68333 148.18 4.36446C140.809 6.22705 133.603 8.68981 126.634 11.7281C118.87 15.0994 111.624 19.5534 105.11 24.9575C97.9114 30.9098 92.1819 38.4412 88.3663 46.9669C86.4178 51.6391 85.2032 56.5845 84.7656 61.6278C84.3675 66.8987 84.6989 72.1994 85.7506 77.3797C86.0879 79.1692 86.5265 80.9382 87.0641 82.6781C82.7251 85.1275 78.6156 87.9627 74.7853 91.1495C64.6663 99.7145 55.8666 109.726 48.6704 120.86C43.3994 128.892 38.7843 137.335 34.87 146.108C30.4582 155.796 27.1029 165.93 24.8624 176.336L24.2953 179.608L23.1868 176.636C21.9098 173.473 20.5011 170.488 19.1301 167.659C16.635 162.689 13.7638 157.917 10.5415 153.384C5.02238 145.63 0.655985 141.685 0.0710467 142.174C-0.513903 142.663 2.5686 147.539 6.98761 155.48C9.16739 159.5 11.7045 164.281 14.1257 169.756C15.3573 172.504 16.5675 175.4 17.7138 178.423C18.2763 179.955 18.8516 181.505 19.3928 183.079C19.6698 183.875 19.8666 184.599 20.3498 185.742C20.9437 187.253 22.0155 188.529 23.4018 189.375C24.1546 189.81 24.9887 190.086 25.8525 190.185C26.5306 190.252 27.2146 190.23 27.8869 190.118C28.8749 189.929 29.8398 189.633 30.765 189.238C32.2553 188.654 33.7202 188.037 35.1639 187.461C38.0429 186.264 40.7993 185.079 43.4287 183.935C48.6368 181.581 53.1681 179.31 57.0645 177.248C64.6032 173.209 69.0606 170.095 68.6736 169.329C68.2867 168.562 63.1354 170.215 55.0666 173.225L40.9817 178.638C38.3343 179.663 35.5656 180.725 32.6756 181.825C31.2362 182.371 29.7629 182.943 28.2897 183.514C28.2507 183.531 28.216 183.557 28.188 183.59C28.6522 182.373 29.2532 180.632 30.0128 178.114C33.0631 168.34 36.7523 158.777 41.0565 149.487C45.0323 141.135 49.6037 133.08 54.7353 125.385C61.6556 114.856 70.0482 105.372 79.6576 97.223C82.8712 94.5708 86.2868 92.1735 89.8734 90.0528C90.298 90.9758 90.7227 91.8989 91.1812 92.7967L91.266 92.7335ZM98.8173 85.5984C100.649 84.8558 102.518 84.2101 104.418 83.6639C105.361 83.4085 106.343 83.204 107.329 82.9698L108.798 82.6397L110.308 82.4366C114.404 81.7819 118.576 81.7476 122.683 82.3348C127.034 82.9329 131.278 84.1462 135.288 85.9383C139.581 87.7595 143.684 90.0018 147.534 92.6324L148.974 93.6428L150.311 94.7291C151.199 95.4401 152.047 96.1991 152.851 97.0027C153.691 97.7747 154.268 98.5841 155.073 99.487C155.702 100.326 156.26 101.216 156.741 102.147C157.719 103.67 158.166 105.473 158.013 107.277C157.859 109.08 157.114 110.782 155.893 112.117C152.821 114.951 148.859 116.628 144.686 116.862C140.041 117.283 135.358 116.893 130.847 115.708C126.094 114.47 121.507 112.665 117.185 110.333C112.797 108.091 108.746 105.242 105.151 101.872C101.638 98.4354 98.6825 94.4723 96.3903 90.1254C95.8769 89.1894 95.3973 88.2281 94.9474 87.2711C96.2305 86.6571 97.5093 86.0727 98.8938 85.4886" fill="#CD1D1D"/>
</svg>
