<svg width="287" height="230" viewBox="0 0 287 230" fill="none" xmlns="http://www.w3.org/2000/svg">
<path d="M133.428 213.077C144.169 218.435 155.895 221.533 167.882 222.179L171.817 222.41L175.609 222.442L182.944 222.306L189.872 221.794C192.077 221.697 194.275 221.472 196.455 221.122C200.742 220.514 204.782 220.018 208.518 219.146L214.069 217.994L219.245 216.626C230.101 213.715 240.69 209.885 250.897 205.178C257.062 202.354 263.058 199.176 268.855 195.658C271.785 193.931 274.606 192.027 277.302 189.954L277.079 190.602C275.903 193.666 274.631 196.666 273.407 199.49L266.8 214.6C263.201 223.328 261.297 228.991 262.281 229.647C263.265 230.303 267.089 225.711 272.144 217.712C274.767 213.776 277.527 208.857 280.423 203.265C281.878 200.457 283.342 197.481 284.71 194.234C285.046 193.418 285.382 192.602 285.686 191.73L286.166 190.386L286.398 189.674L286.67 188.642C286.947 187.809 287.053 186.928 286.982 186.052C286.91 185.176 286.663 184.324 286.253 183.547C285.249 181.93 283.792 180.645 282.062 179.851L281.486 179.467L281.102 179.211L280.382 178.731C279.902 178.411 279.374 178.267 278.87 178.035C277.87 177.611 276.902 177.244 275.91 176.86C273.99 176.1 272.095 175.46 270.311 174.86C266.591 173.628 263.023 172.532 259.624 171.549C252.808 169.605 246.633 168.053 241.457 166.926C231.074 164.614 224.539 163.862 224.355 164.918C224.171 165.974 230.338 168.63 240.353 172.117C245.385 173.877 251.36 175.988 258 178.3C261.288 179.452 264.735 180.676 268.319 181.955C270.095 182.619 271.871 183.283 273.655 183.987L274.903 184.507C272.895 185.387 269.815 186.939 264.744 189.347C260.336 191.435 254.537 194.259 246.658 197.499C236.66 201.66 226.362 205.062 215.853 207.675L210.837 209.219L205.526 210.219C201.958 210.995 198.094 211.435 194.007 211.899C191.963 212.205 189.904 212.395 187.839 212.467L181.328 212.875L174.465 212.771C173.297 212.755 172.129 212.739 170.993 212.779C169.857 212.819 168.609 212.612 167.401 212.5C156.98 211.965 146.776 209.315 137.412 204.709C132.497 202.183 128.164 198.658 124.693 194.359C121.301 190.044 119.142 184.891 118.445 179.448C125.342 178.082 132.056 175.915 138.451 172.992C146.192 169.609 153.154 164.669 158.904 158.481C161.711 155.25 163.914 151.54 165.408 147.53C167.195 143.009 167.448 138.026 166.127 133.347C165.229 130.401 163.535 127.76 161.231 125.716C158.844 123.607 155.921 122.198 152.784 121.644C147.896 120.913 142.901 121.744 138.513 124.021C131.689 127.676 125.773 132.818 121.203 139.068C116.718 144.68 113.188 150.994 110.757 157.754C109.175 162.236 108.235 166.92 107.966 171.665C100.802 172.458 93.5572 172.088 86.5115 170.57C82.4204 169.598 78.4478 168.182 74.6645 166.347C70.9263 164.478 67.4356 162.152 64.2733 159.42C57.9546 153.814 52.9202 146.911 49.514 139.182C47.8199 135.48 46.5738 131.589 45.802 127.591C45.4237 125.651 45.1566 123.69 45.0019 121.72C44.9125 119.773 44.9391 117.823 45.0817 115.88C45.1997 113.86 45.4724 111.851 45.8974 109.873C52.2137 108.669 58.4388 107.027 64.5276 104.961C72.4131 102.387 79.9067 98.7392 86.7972 94.1209C90.5095 91.6946 93.6441 88.4833 95.9801 84.7135C97.4592 82.2467 97.9425 79.3089 97.3317 76.4982C97.1342 75.6865 96.8443 74.9001 96.4677 74.1545C96.0837 73.4825 95.6997 72.8106 95.2837 72.1867C94.8391 71.5153 94.3243 70.8932 93.7478 70.3309C93.2061 69.7046 92.5786 69.1579 91.884 68.7071C89.3795 66.8542 86.3873 65.7753 83.2767 65.6037C81.9412 65.4772 80.5969 65.4745 79.261 65.5958C78.0293 65.7289 76.8061 65.9319 75.5974 66.2038C71.1053 67.2984 66.8263 69.1313 62.9347 71.6277C55.5572 76.2142 49.303 82.3977 44.633 89.7226C42.258 93.3698 40.3399 97.2949 38.9218 101.41C38.5459 102.442 38.218 103.506 37.914 104.585C30.5803 105.801 23.1472 106.312 15.7161 106.114C8.17007 105.96 0.685662 104.718 -6.50596 102.427C-13.4272 100.284 -19.804 96.6712 -25.2005 91.8365C-30.1806 87.2607 -34.0941 81.6462 -36.664 75.3904C-39.0289 69.7778 -40.1821 63.7291 -40.0482 57.6401C-39.4325 47.0464 -34.6712 37.1208 -26.7942 30.0103C-23.4723 26.7287 -19.8427 23.7739 -15.9555 21.1868C-12.4586 18.7737 -8.82346 16.5673 -5.06871 14.579C1.03827 11.357 7.34054 8.51958 13.8013 6.08324C24.5282 2.0033 30.7836 0.419271 30.6795 0.00331495C29.0763 -0.0301353 27.4778 0.191305 25.944 0.659386C22.9123 1.30743 18.4888 2.37947 12.9133 4.13947C6.20541 6.25404 -0.345951 8.83635 -6.69263 11.8674C-10.6108 13.7297 -14.4145 15.824 -18.0834 18.1391C-22.2109 20.7104 -26.091 23.6589 -29.6741 26.9466C-33.6392 30.5803 -37.0246 34.7995 -39.7128 39.4578C-42.7086 44.6704 -44.4323 50.5163 -44.7438 56.5203C-44.9459 63.2826 -43.7134 70.0109 -41.1275 76.2624C-38.3512 83.3946 -34.0324 89.8246 -28.4801 95.0923C-22.4286 100.684 -15.2493 104.914 -7.4257 107.499C0.369865 110.102 8.49557 111.586 16.7082 111.905C23.4579 112.17 30.2179 111.889 36.9223 111.065C36.7863 112.049 36.6904 113.025 36.6185 114.017C36.1211 118.711 36.2991 123.452 37.1468 128.095C38.0042 132.786 39.4279 137.355 41.3868 141.702C45.3663 150.8 51.2566 158.935 58.6579 165.555C62.5372 168.904 66.8177 171.757 71.401 174.05C75.9001 176.272 80.6367 177.975 85.5199 179.129C93.1254 180.844 100.949 181.383 108.718 180.728C109.883 187.561 112.749 193.99 117.054 199.422C121.585 205.051 127.248 209.665 133.676 212.965L133.428 213.077ZM48.265 102.473C49.3429 99.6839 50.6876 97.005 52.2804 94.4739C56.3409 87.9627 61.8004 82.4373 68.2624 78.299C71.4178 76.2316 74.8899 74.694 78.5413 73.747C79.4052 73.491 80.2932 73.459 81.1731 73.283C82.0219 73.2128 82.8746 73.2021 83.7249 73.251C85.1348 73.2693 86.5064 73.7125 87.6605 74.5227C87.9531 74.6308 88.2161 74.8062 88.4285 75.0346C88.6685 75.1946 88.9324 75.3706 89.0524 75.7625L89.4124 76.6265C89.5317 76.8303 89.618 77.0517 89.6684 77.2824C89.8685 78.4791 89.6177 79.7075 88.9646 80.7301C87.1036 83.6838 84.6394 86.2109 81.7335 88.1456C75.4079 92.4879 68.5252 95.9564 61.2717 98.4573C56.9735 99.9826 52.6219 101.311 48.217 102.441L48.265 102.473ZM118.589 169.665C120.139 160.771 123.948 152.425 129.651 145.427C133.465 140.197 138.377 135.864 144.041 132.732C146.489 131.415 149.274 130.858 152.04 131.132C153.07 131.268 154.035 131.709 154.81 132.4C155.586 133.09 156.137 133.997 156.392 135.003C157.087 137.84 156.869 140.824 155.768 143.53C154.618 146.633 152.925 149.507 150.769 152.018C145.8 157.332 139.812 161.592 133.163 164.545C128.438 166.718 123.518 168.441 118.469 169.689" fill="#CD1D1D"/>
</svg>
