<svg width="171" height="188" viewBox="0 0 171 188" fill="none" xmlns="http://www.w3.org/2000/svg">
<path d="M26.8363 89.7906C22.1692 95.6787 18.7599 102.462 16.8194 109.72L16.17 112.101L15.6616 114.419L14.7994 118.93L14.22 123.239C13.9953 124.603 13.8494 125.978 13.783 127.358C13.6027 130.063 13.3857 132.601 13.4382 135.002L13.4282 138.551L13.5989 141.897C13.9822 148.922 14.9629 155.902 16.5302 162.761C17.4649 166.901 18.6388 170.983 20.046 174.988C20.7259 177.005 21.529 178.978 22.4506 180.897L22.0826 180.676C20.3576 179.561 18.6842 178.395 17.1123 177.282L8.70847 171.287C3.82689 167.957 0.603305 166.061 0.0746995 166.579C-0.453906 167.097 1.86565 170.031 6.11369 174.159C8.18614 176.273 10.8437 178.598 13.8954 181.092C15.4275 182.346 17.0615 183.626 18.8745 184.882C19.3309 185.193 19.7874 185.504 20.2823 185.803L21.0436 186.27L21.4497 186.504L22.0467 186.804C22.5215 187.081 23.0475 187.26 23.593 187.329C24.1386 187.398 24.6925 187.356 25.2215 187.206C26.3412 186.799 27.3164 186.072 28.0255 185.115L28.3349 184.811L28.5412 184.609L28.928 184.23C29.1858 183.977 29.3421 183.672 29.5491 183.394C29.9377 182.836 30.2878 182.29 30.6509 181.732C31.3638 180.654 32.0002 179.576 32.5976 178.56C33.8316 176.441 34.9628 174.397 36.0037 172.441C38.0728 168.517 39.8194 164.935 41.1774 161.91C43.9318 155.848 45.2348 151.942 44.6118 151.693C43.9887 151.444 41.567 154.88 38.1398 160.565C36.4133 163.42 34.3495 166.807 32.0776 170.576C30.9483 172.442 29.7542 174.396 28.5083 176.426C27.8727 177.428 27.2371 178.43 26.576 179.432L26.0967 180.129C25.8165 178.786 25.263 176.699 24.4419 173.283C23.7312 170.314 22.7492 166.398 21.7805 161.154C20.5204 154.493 19.7644 147.747 19.5189 140.973L19.2198 137.702L19.292 134.32C19.2766 132.035 19.5051 129.611 19.7479 127.048C19.8238 125.757 19.9731 124.471 20.195 123.197L20.7844 119.156L21.7328 114.965C21.8932 114.252 22.0535 113.539 22.1754 112.838C22.2974 112.137 22.5856 111.399 22.8099 110.674C24.4806 104.359 27.4197 98.4511 31.4479 93.3092C33.6286 90.6243 36.3467 88.4252 39.4277 86.853C42.5075 85.3319 45.942 84.6736 49.366 84.9483C49.3136 89.3491 49.7751 93.7409 50.7413 98.0346C51.8158 103.212 53.9437 108.113 56.9928 112.434C58.6101 114.569 60.5982 116.397 62.8622 117.829C65.4008 119.507 68.4205 120.304 71.4566 120.098C73.3768 119.927 75.2127 119.23 76.7619 118.083C78.3613 116.893 79.6011 115.284 80.3447 113.434C81.4232 110.534 81.5577 107.367 80.7291 104.386C79.3701 99.7349 76.9829 95.4484 73.7441 91.8439C70.8847 88.3728 67.4726 85.397 63.645 83.0361C61.1036 81.4893 58.3561 80.31 55.4842 79.533C55.9222 75.0429 57.0828 70.6531 58.921 66.5332C60.0436 64.1526 61.4232 61.9019 63.0351 59.8212C64.6613 57.7723 66.5367 55.9342 68.6177 54.3494C72.8657 51.2018 77.743 49.0081 82.9164 47.9182C85.4025 47.3578 87.9465 47.0962 90.4946 47.1388C91.7318 47.1573 92.967 47.2464 94.1941 47.4057C95.3978 47.6018 96.5887 47.8695 97.7606 48.2074C98.9829 48.5402 100.178 48.9661 101.335 49.4816C101.258 53.5056 101.461 57.5302 101.942 61.5261C102.502 66.688 103.77 71.7482 105.71 76.5641C106.718 79.1507 108.281 81.4848 110.289 83.4016C111.609 84.6256 113.346 85.3004 115.147 85.2886C115.669 85.2723 116.188 85.1961 116.694 85.0616C117.155 84.913 117.616 84.7644 118.051 84.5901C118.52 84.4043 118.967 84.1691 119.386 83.8885C119.84 83.6374 120.255 83.3236 120.621 82.9562C122.079 81.6611 123.125 79.9674 123.632 78.0842C123.881 77.2825 124.056 76.4595 124.154 75.6256C124.231 74.8539 124.265 74.0786 124.254 73.3031C124.163 70.4106 123.592 67.5533 122.564 64.8478C120.706 59.7377 117.725 55.1096 113.84 51.3048C111.913 49.3799 109.756 47.699 107.418 46.2999C106.835 45.9366 106.225 45.5986 105.603 45.2732C105.804 40.6245 106.449 36.0057 107.528 31.4796C108.596 26.8774 110.321 22.4531 112.652 18.3435C114.857 14.3805 117.892 10.9403 121.549 8.2581C124.993 5.7976 128.937 4.12436 133.1 3.3568C136.843 2.63182 140.696 2.70525 144.409 3.5723C150.818 5.3152 156.284 9.51118 159.624 15.2527C161.205 17.7105 162.547 20.3146 163.631 23.0291C164.658 25.4821 165.541 27.9931 166.275 30.5493C167.461 34.7053 168.386 38.9314 169.046 43.2028C170.162 50.2992 170.326 54.335 170.594 54.3249C170.821 53.3471 170.891 52.3395 170.803 51.3397C170.796 49.3992 170.71 46.5515 170.351 42.9095C169.92 38.5282 169.183 34.1824 168.145 29.9042C167.509 27.2642 166.717 24.6643 165.772 22.1186C164.729 19.259 163.423 16.5022 161.871 13.8837C160.157 10.9865 158.009 8.36893 155.502 6.12184C152.696 3.61483 149.337 1.80536 145.7 0.840516C141.584 -0.155052 137.304 -0.26756 133.141 0.510372C128.415 1.29141 123.92 3.10781 119.977 5.82954C115.772 8.81534 112.255 12.6674 109.664 17.1263C107.064 21.5656 105.108 26.3514 103.853 31.3406C102.821 35.4408 102.121 39.6176 101.762 43.8304C101.177 43.6203 100.591 43.4357 99.9931 43.2638C97.1821 42.354 94.2551 41.8518 91.3016 41.7724C88.3181 41.6928 85.3359 41.9758 82.4207 42.6153C76.335 43.8798 70.5927 46.439 65.5835 50.1189C63.0322 52.0633 60.7326 54.3173 58.7374 56.8291C56.7967 59.2984 55.1423 61.98 53.8062 64.8223C51.7752 69.2598 50.4363 73.9822 49.8359 78.8253C45.5008 78.6579 41.1933 79.585 37.3109 81.521C33.279 83.5707 29.7228 86.4448 26.873 89.957L26.8363 89.7906ZM105.562 51.8857C107.132 52.9056 108.599 54.0746 109.944 55.3765C113.409 58.703 116.089 62.7594 117.791 67.251C118.651 69.4503 119.145 71.7752 119.254 74.1339C119.3 74.696 119.205 75.244 119.199 75.8057C119.133 76.3346 119.029 76.8583 118.89 77.3728C118.697 78.2341 118.248 79.0171 117.603 79.6195C117.499 79.7848 117.358 79.9233 117.191 80.0239C117.062 80.1503 116.92 80.2893 116.665 80.3123L116.089 80.4214C115.949 80.4681 115.802 80.4925 115.654 80.4936C114.895 80.4619 114.175 80.1499 113.633 79.618C112.064 78.0974 110.834 76.2622 110.023 74.2328C108.179 69.7985 106.942 65.1356 106.345 60.3702C105.965 57.5409 105.713 54.7042 105.588 51.8604L105.562 51.8857ZM55.3398 86.2976C60.5874 88.3937 65.2085 91.8029 68.7599 96.1982C71.4715 99.2088 73.4923 102.776 74.6808 106.649C75.1714 108.318 75.1536 110.096 74.6296 111.755C74.4135 112.368 74.0185 112.902 73.4958 113.288C72.9731 113.675 72.3466 113.895 71.6972 113.922C69.8698 113.981 68.07 113.463 66.5545 112.44C64.8024 111.335 63.2604 109.928 62.0004 108.284C59.386 104.555 57.5485 100.338 56.5969 95.8848C55.8748 92.7103 55.4542 89.4746 55.3406 86.221" fill="#CD1D1D"/>
</svg>
