<svg width="236" height="246" viewBox="0 0 236 246" fill="none" xmlns="http://www.w3.org/2000/svg">
<path d="M99.2962 25.2749C83.3279 9.75405 64.5747 1.43278 48.3287 0.232355C41.0228 -0.386657 33.6648 0.233344 26.5654 2.06613C21.1677 3.39712 15.984 5.48105 11.167 8.25662C8.08489 10.0412 5.19616 12.1405 2.54701 14.5208C0.765946 16.2289 -0.0825885 17.1779 0.00678437 17.3166C0.096157 17.4552 3.97113 14.0195 11.9497 9.96867C23.1005 4.43418 35.6314 2.29723 47.9862 3.82329C63.3648 5.40093 81.0072 13.945 95.974 29.13C103.898 37.1457 110.539 46.3361 115.66 56.3768C121.316 67.3432 124.735 79.3241 125.72 91.6235C126.697 104.561 124.305 117.532 118.776 129.27C115.773 135.743 111.661 141.641 106.628 146.698C105.435 141.913 104.24 136.896 102.72 131.767C101 125.612 98.5086 119.7 95.3049 114.171C91.8971 108.406 87.2684 103.458 81.7439 99.6739C76.1645 95.7665 69.7321 93.2491 62.9827 92.3314C56.2332 91.4137 49.3621 92.1224 42.9421 94.3983C35.7513 97.0836 29.7279 102.202 25.9175 108.865C23.8322 112.615 22.756 116.842 22.7942 121.133C22.9013 125.226 23.8455 129.254 25.5687 132.969C27.0891 136.334 28.9475 139.536 31.1152 142.526C33.2034 145.474 35.5156 148.257 38.0314 150.85C40.4763 153.439 43.1348 155.817 45.9788 157.959C48.7987 160.128 51.8231 162.017 55.0093 163.599C58.1842 165.196 61.5375 166.409 64.9987 167.214C68.4448 168.12 71.9948 168.572 75.558 168.556C82.7162 168.538 89.7689 166.83 96.1424 163.571C97.9028 162.686 99.6121 161.703 101.262 160.626C101.953 162.976 102.699 165.306 103.529 167.567C107.134 177.337 112.816 186.209 120.183 193.57C126.256 199.606 133.21 204.686 140.808 208.636C152.373 214.536 164.921 218.264 177.831 219.635C186.391 220.635 195.013 220.983 203.625 220.675C210.404 220.49 215.497 220.08 219.267 219.689C222.249 219.4 224.506 219.113 226.14 218.841L224.806 219.973C223.141 221.523 221.645 223.244 220.342 225.11C218.219 228.161 216.48 231.462 215.164 234.939C212.983 240.801 212.46 244.633 213.318 245.109C214.175 245.586 216.417 242.423 219.585 237.542C221.337 234.766 223.271 232.109 225.374 229.588C226.53 228.202 227.805 226.92 229.186 225.758L231.577 223.905C232.058 223.514 232.566 223.1 233.114 222.56C233.767 221.925 234.337 221.209 234.809 220.429C235.385 219.462 235.744 218.381 235.859 217.26C235.973 216.14 235.842 215.009 235.474 213.945C235.291 213.437 235.064 212.945 234.796 212.476C234.507 212.007 234.165 211.557 234.007 211.333L232.897 210.028C231.509 208.41 230.162 206.899 228.83 205.493C226.479 202.986 223.99 200.612 221.375 198.382C216.916 194.636 213.728 192.884 213.052 193.669C212.376 194.455 214.355 197.636 217.811 202.316C219.539 204.669 221.644 207.372 223.977 210.382L226.123 213.193C224.432 213.019 222.158 212.967 219.028 212.931C215.197 212.901 210.18 212.826 203.507 212.737C195.226 212.628 186.96 212.014 178.754 210.897C166.786 209.367 155.181 205.739 144.473 200.18C137.668 196.558 131.438 191.947 125.985 186.499C119.569 180.072 114.628 172.327 111.504 163.8C110.401 160.916 109.522 157.873 108.63 154.699C115.469 148.405 120.949 140.779 124.734 132.29C130.655 119.29 133.096 104.975 131.819 90.7469C130.582 77.5884 126.723 64.8106 120.471 53.1664C114.891 42.7556 107.718 33.2808 99.2121 25.085L99.2962 25.2749ZM93.0458 156.39C87.5996 159.094 81.5923 160.474 75.5122 160.419C72.5255 160.409 69.5536 160 66.6755 159.202C63.7356 158.429 60.8944 157.321 58.2082 155.898C55.4602 154.499 52.8551 152.835 50.4296 150.93C47.9355 149.008 45.6066 146.88 43.4673 144.57C41.2962 142.253 39.308 139.772 37.5205 137.148C35.7016 134.603 34.1412 131.884 32.8624 129.029C31.5912 126.588 30.9373 123.873 30.9577 121.121C30.9782 118.369 31.6724 115.664 32.9797 113.242C35.858 108.434 40.3047 104.765 45.5713 102.853C48.1182 101.866 50.7989 101.268 53.5235 101.078C56.2779 100.84 59.0514 100.95 61.778 101.407C67.1685 102.29 72.2983 104.349 76.8025 107.439C81.3068 110.529 85.075 114.573 87.839 119.284C90.594 124.143 92.7418 129.321 94.2345 134.704C96.0035 140.687 97.3671 146.836 98.8694 152.895C96.9849 154.191 95.0134 155.357 92.969 156.382" fill="#CD1D1D"/>
</svg>
