<svg width="333" height="174" viewBox="0 0 333 174" fill="none" xmlns="http://www.w3.org/2000/svg">
<path d="M311.537 173.422C311.044 173.769 310.599 174.2 310.067 173.401L309.618 173.49C306.979 173.133 304.474 172.118 302.332 170.536C300.526 169.211 298.899 167.657 297.491 165.915C295.309 163.175 293.445 160.198 291.933 157.04C289.402 151.65 288.906 147.883 290.017 147.351C291.127 146.82 293.538 149.398 296.918 153.405C298.647 155.369 300.908 157.821 303.068 160.074C304.416 161.435 305.958 162.589 307.642 163.502L307.381 162.182C306.061 154.246 304.488 140.936 301.145 119.779C299.393 109.185 297.147 96.5697 293.448 81.8103C291.533 74.4904 289.343 66.5703 286.393 58.2708C285.034 54.0823 283.268 49.8809 281.557 45.4818C279.845 41.0827 277.756 36.6648 275.439 32.1984C273.383 27.7077 270.868 23.442 267.934 19.4697C265.543 15.8894 262.078 13.1592 258.038 11.6711C256.155 11.1412 254.175 11.0528 252.252 11.4129C250.206 11.9106 248.265 12.7695 246.52 13.9492C242.247 16.9729 238.6 20.7955 235.78 25.2058C234.191 27.5568 232.727 29.9896 231.393 32.4943C229.936 35.2136 228.431 38.0048 226.8 40.7897C223.526 46.7023 219.322 52.0489 214.348 56.6241C211.593 59.1326 208.357 61.0557 204.837 62.2765C201.205 63.4563 197.345 63.7604 193.573 63.164C186.341 61.5692 179.717 57.9364 174.485 52.6953C171.899 50.3392 169.482 47.8874 167.166 45.4779L163.714 41.8905C162.583 40.7428 161.542 39.7332 160.375 38.7172C156.187 34.7287 151.097 31.811 145.539 30.2125C143.234 29.5123 140.765 29.5705 138.495 30.3785C136.226 31.1865 134.275 32.7017 132.931 34.701C131.16 37.2128 129.6 39.867 128.267 42.6365C126.761 45.5836 125.28 48.4948 123.78 51.4719C118.077 63.2909 112.936 75.435 108.472 87.5385C107.346 90.8245 105.979 94.0225 104.38 97.1063C102.594 100.501 99.9291 103.353 96.6631 105.365C93.3954 107.201 89.6642 108.048 85.924 107.801C82.4767 107.485 79.1178 106.532 76.0177 104.991C72.9203 103.494 70.0513 101.563 67.4968 99.2584C65.0554 96.9577 62.851 94.4177 60.9168 91.6768C57.0963 86.3856 54.1456 80.9225 51.074 75.9508C48.3744 71.1728 44.9623 66.8342 40.9552 63.0846C37.4242 59.7797 33.0261 57.5471 28.2742 56.6473C26.1853 56.3208 24.0485 56.5018 22.0443 57.1749C20.04 57.848 18.2271 58.9934 16.7586 60.5145C13.7314 63.8643 11.4537 67.8214 10.0776 72.1216C8.5033 76.4537 7.28239 80.9965 6.06174 85.3834C4.84108 89.7703 3.71106 93.8275 2.65325 97.777C-1.57208 113.605 -4.49608 126.557 -6.49999 135.494C-7.26328 140.192 -8.43487 144.814 -10.0014 149.308C-10.0425 144.5 -9.55966 139.702 -8.56167 134.998C-7.25292 125.856 -4.9101 112.644 -1.27181 96.5273C-0.387704 92.4875 0.616656 88.2681 1.71733 83.905C2.818 79.5418 3.84714 74.9746 5.42841 70.2048C6.89137 65.0526 9.47092 60.2857 12.9838 56.2429C14.9435 54.1296 17.3586 52.4901 20.046 51.4487C22.835 50.3861 25.8376 50.0059 28.8034 50.34C34.7581 51.2156 40.3288 53.8072 44.8343 57.7979C47.2048 59.8008 49.3695 62.0352 51.2964 64.4679C53.2042 66.8645 54.9257 69.4227 56.5873 71.9928C63.1739 82.129 68.8586 93.3787 78.8397 97.6695C80.9982 98.8593 83.4123 99.5095 85.8763 99.5649C88.3403 99.6203 90.7812 99.0791 92.991 97.9875C96.9174 95.7772 99.0759 90.3009 101.158 84.1229C105.574 71.6235 110.62 59.1554 116.289 46.8446C117.68 43.7953 119.168 40.7582 120.722 37.7393C122.207 34.4852 123.967 31.3634 125.982 28.4078C128.264 25.0822 131.469 22.4977 135.203 20.9738C138.987 19.6757 143.059 19.4642 146.957 20.3632C154.08 22.2197 160.64 25.7912 166.064 30.766C167.411 31.9022 168.787 33.3443 169.906 34.432L173.419 38.0075C175.722 40.3571 178.008 42.6166 180.313 44.6544C184.2 48.5794 189.119 51.3238 194.501 52.5701C196.904 52.8882 199.347 52.6573 201.647 51.8946C203.948 51.1319 206.045 49.8574 207.781 48.1669C211.923 44.2542 215.422 39.7123 218.148 34.7088C219.635 32.1394 221.044 29.4919 222.476 26.8085C223.962 23.9577 225.599 21.1888 227.381 18.5137C230.856 13.0251 235.351 8.25318 240.622 4.45606C243.42 2.54476 246.557 1.18386 249.865 0.446076C253.287 -0.251859 256.825 -0.129244 260.19 0.803886C266.514 2.85451 272.005 6.89686 275.841 12.3266C279.273 16.8892 282.209 21.8044 284.6 26.9889C287.067 31.7375 289.071 36.515 291.095 41.0707C293.118 45.6264 294.697 50.1451 296.127 54.5377C299.197 63.2812 301.422 71.5372 303.336 79.1689C306.424 92.0633 308.858 105.106 310.629 118.246C313.527 139.99 314.44 153.274 314.729 161.352L314.773 162.839C317.842 160.861 320.956 157.222 323.785 154.823C325.499 153.278 327.521 152.113 329.717 151.406C331.367 151.079 332.362 151.225 332.571 151.808C333.006 153.062 330.849 155.078 328.123 159.42C326.432 162.177 324.546 164.81 322.481 167.299C320.984 168.938 319.242 170.334 317.316 171.438C316.406 171.942 315.433 172.323 314.423 172.571C314.037 173.613 313.456 173.198 312.863 172.879C312.27 172.56 311.993 173.051 311.573 173.134" fill="#CD1D1D"/>
</svg>
