<svg width="157" height="59" viewBox="0 0 157 59" fill="none" xmlns="http://www.w3.org/2000/svg">
<path d="M102.728 58.0253L101.482 58.0259C101.453 58.026 101.439 58.0081 101.439 57.9722L101.457 50.4151C101.457 50.3865 101.471 50.3721 101.5 50.3721L102.842 50.3714C102.871 50.3714 102.896 50.3857 102.918 50.4144L103.923 51.864L104.921 50.4133C104.943 50.3847 104.969 50.3703 105.002 50.3703L106.35 50.3696C106.382 50.3696 106.398 50.3839 106.398 50.4126L106.424 57.9697C106.424 58.0055 106.409 58.0234 106.381 58.0234L105.134 58.0241C105.106 58.0241 105.092 58.0062 105.091 57.9704L105.078 52.3576L103.924 54.034L102.779 52.3588L102.771 57.9716C102.771 58.0074 102.757 58.0253 102.728 58.0253ZM111.363 58.1283C110.973 58.1285 110.613 58.0284 110.283 57.8281C109.957 57.6277 109.694 57.3611 109.493 57.0282C109.296 56.6917 109.198 56.3229 109.197 55.9219L109.206 52.436C109.206 52.0278 109.304 51.6608 109.501 51.3348C109.694 51.0053 109.956 50.742 110.285 50.5449C110.614 50.3442 110.972 50.2437 111.359 50.2435C111.76 50.2433 112.12 50.3416 112.439 50.5384C112.761 50.7352 113.019 51 113.213 51.3329C113.41 51.6622 113.508 52.0292 113.509 52.4338L113.521 55.9197C113.521 56.3207 113.425 56.6878 113.232 57.0209C113.035 57.3576 112.774 57.6263 112.448 57.8269C112.122 58.0276 111.761 58.1281 111.363 58.1283ZM111.362 56.8016C111.584 56.8015 111.778 56.7119 111.942 56.5328C112.107 56.3501 112.189 56.1459 112.189 55.9203L112.177 52.4345C112.176 52.191 112.099 51.9852 111.945 51.817C111.791 51.6487 111.596 51.5647 111.36 51.5648C111.134 51.5649 110.941 51.6474 110.78 51.8122C110.619 51.977 110.538 52.1847 110.538 52.4353L110.54 55.9212C110.54 56.1611 110.621 56.3687 110.782 56.5441C110.943 56.7159 111.137 56.8017 111.362 56.8016ZM118.349 58.0173L116.378 58.0183C116.349 58.0183 116.335 58.0004 116.335 57.9646L116.352 50.4075C116.352 50.3788 116.367 50.3645 116.395 50.3645L118.511 50.3634C118.923 50.3632 119.297 50.4632 119.634 50.6636C119.964 50.8639 120.223 51.1306 120.413 51.4635C120.603 51.7928 120.698 52.1508 120.699 52.5376C120.699 52.8527 120.627 53.1463 120.484 53.4185C120.341 53.6907 120.171 53.911 119.974 54.0794C120.186 54.2906 120.351 54.5358 120.469 54.815C120.587 55.0943 120.646 55.3878 120.647 55.6958C120.647 56.1219 120.545 56.5105 120.341 56.8615C120.133 57.2125 119.856 57.4937 119.509 57.7052C119.162 57.913 118.775 58.0171 118.349 58.0173ZM118.512 51.6686L117.674 51.669L117.675 53.3985L118.513 53.3981C118.767 53.3979 118.973 53.3083 119.131 53.1292C119.288 52.9465 119.367 52.7495 119.367 52.5382C119.366 52.3055 119.282 52.1032 119.114 51.9314C118.945 51.7561 118.745 51.6684 118.512 51.6686ZM118.347 54.7302L117.676 54.7305L117.666 56.6749L118.348 56.6745C118.613 56.6744 118.84 56.5776 119.03 56.3841C119.22 56.1907 119.315 55.9614 119.314 55.6965C119.314 55.4315 119.219 55.2042 119.029 55.0145C118.84 54.8248 118.612 54.73 118.347 54.7302ZM124.717 58.014L123.471 58.0146C123.435 58.0147 123.417 57.9968 123.417 57.961L123.424 50.4038C123.424 50.3752 123.438 50.3609 123.467 50.3608L124.702 50.3602C124.731 50.3602 124.745 50.3745 124.745 50.4032L124.76 57.9603C124.76 57.9961 124.746 58.014 124.717 58.014ZM131.305 58.0106L127.75 58.0125C127.721 58.0125 127.707 57.9946 127.707 57.9588L127.714 50.4124C127.714 50.3766 127.732 50.3586 127.767 50.3586L128.992 50.358C129.028 50.358 129.046 50.3759 129.046 50.4117L129.038 56.6583L131.305 56.6571C131.341 56.6571 131.358 56.675 131.358 56.7108L131.359 57.9569C131.359 57.9927 131.341 58.0106 131.305 58.0106ZM135.359 58.0085L134.113 58.0092C134.077 58.0092 134.059 57.9913 134.059 57.9555L134.066 50.3984C134.066 50.3697 134.08 50.3554 134.109 50.3554L135.344 50.3547C135.373 50.3547 135.387 50.369 135.387 50.3977L135.402 57.9548C135.402 57.9906 135.387 58.0085 135.359 58.0085ZM140.696 58.0058L139.455 58.0064C139.423 58.0065 139.407 57.9886 139.407 57.9528L139.403 51.6793L137.975 51.6801C137.939 51.6801 137.921 51.6622 137.921 51.6264L137.931 50.3964C137.931 50.3677 137.945 50.3534 137.974 50.3534L142.153 50.3512C142.192 50.3512 142.212 50.3655 142.212 50.3942L142.212 51.6242C142.212 51.66 142.198 51.6779 142.169 51.6779L140.725 51.6786L140.739 57.9521C140.739 57.9879 140.724 58.0058 140.696 58.0058ZM147.026 58.0026L145.764 58.0032C145.739 58.0032 145.726 57.9889 145.726 57.9603L145.736 54.8343L144.262 50.3931C144.254 50.3645 144.265 50.3502 144.294 50.3501L145.518 50.3495C145.554 50.3495 145.576 50.3638 145.583 50.3925L146.395 53.3515L147.221 50.3916C147.228 50.363 147.246 50.3486 147.275 50.3486L148.51 50.348C148.539 50.348 148.549 50.3623 148.542 50.3909L147.057 54.7906L147.069 57.9596C147.069 57.9882 147.055 58.0025 147.026 58.0026Z" fill="#CD1D1D"/>
<path d="M124.018 26.8298L119.677 47.3816H110.15L119.927 1.34305H129.453L125.705 18.8964H143.695L147.443 1.34305H157.001L147.225 47.3816H137.667L142.009 26.8298H124.018Z" fill="#CD1D1D"/>
<path d="M94.4158 19.2712L101.943 21.1765C105.233 22.0094 107.617 23.1234 109.096 24.5185C111.386 26.684 112.094 29.8178 111.22 33.9198C110.324 38.126 107.971 41.6242 104.161 44.4144C100.35 47.1838 95.509 48.5685 89.637 48.5685C83.6402 48.5685 79.2154 47.2046 76.3627 44.4769C73.51 41.7283 72.5938 37.9594 73.6141 33.1702H82.7968C82.6511 35.2733 82.8905 36.8454 83.5152 37.8865C84.6813 39.7814 87.1592 40.7288 90.9489 40.7288C93.2185 40.7288 95.1133 40.4789 96.6334 39.9792C99.5277 39.0214 101.246 37.241 101.787 34.6382C102.12 33.1182 101.704 31.9417 100.538 31.1088C99.3924 30.2967 97.4559 29.5784 94.7281 28.9537L90.0743 27.8605C85.5142 26.7777 82.4533 25.6013 80.8916 24.3311C78.2471 22.2072 77.4038 18.886 78.3617 14.3675C79.2362 10.2447 81.4642 6.81937 85.0457 4.09162C88.6271 1.36387 93.3226 0 99.1321 0C103.984 0 107.846 1.29099 110.72 3.87298C113.593 6.43415 114.593 10.1614 113.718 15.0547H104.473C104.91 12.2853 104.129 10.3175 102.131 9.15149C100.798 8.38105 99.0176 7.99584 96.7896 7.99584C94.3117 7.99584 92.219 8.49558 90.5116 9.49506C88.825 10.4945 87.7942 11.8896 87.4194 13.6804C87.0655 15.3254 87.534 16.5539 88.825 17.366C89.637 17.9073 91.5006 18.5424 94.4158 19.2712Z" fill="#CD1D1D"/>
<path d="M66.8303 1.34305L73.3582 47.3816H62.9261L61.9579 37.9178H44.9979L39.8131 47.3816H29.7559L55.961 1.34305H66.8303ZM59.0531 11.8688L49.277 29.9844H60.9584L59.0531 11.8688Z" fill="#CD1D1D"/>
<path d="M12.6675 38.9866L4.91306 47.3764H18.9947C25.4435 47.3764 32.2489 40.6563 34.5958 35.063C36.1673 31.323 39.7315 18.0921 40.0572 14.1608C40.5793 7.87491 35.6969 1.11342 29.0775 1.11342H0.258467L7.23191 9.76431L0 29.8032H7.75401L1.16052 46.8621L21.4502 21.5349H12.9208L17.0924 9.6816C21.8327 9.79532 31.5304 7.89042 31.0135 15.4557C30.861 17.6967 27.1339 31.977 26.1491 33.8586C23.3654 39.183 17.9014 38.9297 12.6675 38.9866Z" fill="#CD1D1D"/>
</svg>
