<svg width="24" height="24" viewBox="0 0 24 24" fill="none" xmlns="http://www.w3.org/2000/svg">
<path d="M12.0001 12C9.52039 12 7.33602 9.67031 7.12508 6.80625C7.01727 5.35312 7.46727 4.00781 8.39071 3.01875C9.30008 2.03906 10.5845 1.5 12.0001 1.5C13.4063 1.5 14.686 2.04375 15.6001 3.02812C16.5282 4.02656 16.9782 5.36719 16.8704 6.80625C16.6595 9.67031 14.4751 12 12.0001 12ZM12.0001 3C11.0063 3 10.111 3.37031 9.48758 4.04062C8.85477 4.72031 8.54539 5.66719 8.62039 6.69844C8.77039 8.76094 10.3173 10.5047 11.9954 10.5047C13.6735 10.5047 15.2204 8.76094 15.3704 6.69844C15.4454 5.68125 15.136 4.73906 14.4938 4.05C13.8751 3.37031 12.9845 3 12.0001 3Z" fill="#CD1D1D"/>
<path d="M20.2503 22.5H3.75035C3.30035 22.5 2.89722 22.3125 2.61597 21.9797C2.31129 21.614 2.18941 21.1172 2.27847 20.6156C2.67222 18.4219 3.90972 16.575 5.85035 15.2859C7.57535 14.1375 9.75972 13.5047 12.0003 13.5047C14.241 13.5047 16.4253 14.1375 18.1503 15.2859C20.091 16.5797 21.3285 18.4219 21.7222 20.6156C21.8113 21.1172 21.6894 21.614 21.3847 21.9797C21.1035 22.3125 20.7003 22.5 20.2503 22.5ZM3.75972 21H20.241C20.2503 20.9765 20.255 20.939 20.2457 20.8781C19.5191 16.8422 15.4597 15 12.0003 15C8.54097 15 4.4816 16.8422 3.75504 20.8781C3.74566 20.939 3.75035 20.9765 3.75972 21Z" fill="#CD1D1D"/>
</svg>
