<svg width="20" height="16" viewBox="0 0 20 16" fill="none" xmlns="http://www.w3.org/2000/svg">
<path d="M19.5833 1.85456C18.8627 2.1679 18.0891 2.38331 17.2764 2.47731C18.1067 1.98773 18.7413 1.21223 19.0428 0.289853C18.2516 0.750974 17.3883 1.07538 16.4892 1.24944C16.111 0.853018 15.656 0.537793 15.152 0.322984C14.6479 0.108176 14.1054 -0.00171261 13.5575 2.01777e-05C11.3388 2.01777e-05 9.541 1.77231 9.541 3.95585C9.541 4.26527 9.57625 4.56685 9.64479 4.85669C8.05331 4.78111 6.49505 4.37463 5.06944 3.66317C3.64383 2.95172 2.38217 1.95091 1.36496 0.724603C1.00769 1.32601 0.819583 2.01279 0.820542 2.71231C0.820542 4.08315 1.53142 5.29731 2.6085 6.00427C1.97095 5.98428 1.34706 5.81455 0.78725 5.50881V5.55777C0.7933 6.47713 1.11782 7.36597 1.70555 8.07296C2.29327 8.77995 3.10788 9.26138 4.01067 9.43527C3.41799 9.59198 2.79785 9.61473 2.19529 9.50185C2.45796 10.2928 2.96036 10.9823 3.63275 11.4746C4.30514 11.967 5.11415 12.2378 5.94746 12.2494C4.5178 13.3511 2.7625 13.9463 0.957625 13.9414C0.6345 13.9414 0.315292 13.9218 0 13.8866C1.84176 15.0523 3.9773 15.6698 6.157 15.6667C13.5478 15.6667 17.5878 9.63894 17.5878 4.41019L17.5741 3.8971C18.3619 3.34344 19.0427 2.65138 19.5833 1.85456Z" fill="#CD1D1D"/>
</svg>
